<svg xmlns="http://www.w3.org/2000/svg" xmlns:xlink="http://www.w3.org/1999/xlink" viewBox="0,0,256,256" width="64px" height="64px" fill-rule="nonzero"><g fill="#7f1d1d" fill-rule="nonzero" stroke="none" stroke-width="1" stroke-linecap="butt" stroke-linejoin="miter" stroke-miterlimit="10" stroke-dasharray="" stroke-dashoffset="0" font-family="none" font-weight="none" font-size="none" text-anchor="none" style="mix-blend-mode: normal"><g transform="scale(4,4)"><path d="M46.19336,6.86328c-1.66729,0.02084 -3.31627,0.64884 -4.7168,2.12891c-0.00394,0.00387 -0.00784,0.00778 -0.01172,0.01172c-5.66708,6.18263 -26.03125,29.76758 -26.03125,29.76758c-0.10958,0.12695 -0.18547,0.27941 -0.2207,0.44336l-1.48828,6.9043c-0.2802,-0.0744 -0.44163,-0.20469 -0.74219,-0.26758c-0.35364,-0.08358 -0.72478,0.03124 -0.96945,0.29991c-0.24467,0.26867 -0.32436,0.6489 -0.20816,0.9932c0.1162,0.3443 0.41001,0.59848 0.76745,0.66393c0.30506,0.06383 0.4527,0.18615 0.73047,0.26172l-1.50391,6.97461c-0.07876,0.3673 0.05495,0.74777 0.34618,0.98504c0.29123,0.23727 0.69087,0.29133 1.03468,0.13996l7.37305,-3.25586c0.46417,-0.20452 0.70174,-0.72413 0.55273,-1.20898c0,0 -0.39819,-1.2235 -1.60156,-2.49414c-0.8101,-0.85538 -2.19158,-1.68778 -3.88281,-2.4043l1.49219,-6.91992c0.25889,-0.29975 20.27323,-23.47307 25.81445,-29.51953l0.00391,-0.00195c4.83201,-5.09832 12.96104,3.78667 9.90234,7.05859c-0.00729,0.0077 -0.01445,0.01551 -0.02148,0.02344c0,0 -18.82633,21.4717 -24.94141,28.81836c-0.79064,-1.35547 -1.80626,-2.55767 -2.82617,-3.43359c-0.86409,-0.74209 -1.16166,-0.88602 -1.64062,-1.20117l22.51563,-25.54297c0.24676,-0.26644 0.3297,-0.64572 0.21666,-0.99083c-0.11303,-0.34512 -0.40427,-0.60185 -0.76084,-0.67069c-0.35657,-0.06884 -0.72244,0.06102 -0.95583,0.33926l-23.23437,26.35938c-0.19692,0.22344 -0.284,0.52303 -0.23755,0.81722c0.04645,0.29419 0.2216,0.55237 0.47779,0.70427c0,0 1.08458,0.64521 2.31641,1.70313c1.23183,1.05792 2.54922,2.52892 3.02148,3.94531c0.11542,0.34554 0.4096,0.60099 0.76791,0.6668c0.35831,0.06581 0.72407,-0.06842 0.95474,-0.35039c5.17612,-6.31242 25.77539,-29.78443 25.80859,-29.82227c3.88094,-4.15149 -1.66828,-11.39206 -7.38672,-11.89844c-0.23827,-0.0211 -0.47666,-0.03032 -0.71484,-0.02734zM15.20313,48.75195c1.25991,0.57904 2.26599,1.2197 2.84961,1.83594c0.52865,0.5582 0.48568,0.65588 0.64258,0.96094l-4.52734,1.99805z"></path></g></g></svg>